<svg width="236.000000" height="26.000000" viewBox="0 0 236 26" fill="none" xmlns="http://www.w3.org/2000/svg" xmlns:xlink="http://www.w3.org/1999/xlink">
	<desc>
			Created with Pixso.
	</desc>
	<defs/>
	<path id="coffeeroasters" d="M43.5591 23.6836C42.5811 24.1572 41.4402 24.394 40.1362 24.394Q38.1965 24.394 36.636 23.625L36.6348 23.6245Q36.5308 23.5732 36.4282 23.5181Q35.7607 23.1611 35.208 22.6738Q34.405 21.9648 33.845 20.981Q32.8997 19.3198 32.8997 16.9399Q32.8997 14.8125 33.7449 13.1035Q33.8125 12.9668 33.8857 12.8325Q34.3989 11.8906 35.1216 11.1543Q35.7878 10.4761 36.6321 9.97266Q36.7158 9.92285 36.8008 9.87549Q38.5039 8.92334 40.7393 8.92334Q42.7441 8.92334 44.1213 9.51807Q45.4985 10.1133 46.2239 11.1299Q46.575 11.6216 46.7561 12.1699Q46.9492 12.7544 46.9492 13.4023Q46.9492 14.5107 46.4165 15.2188L46.4165 15.2188Q46.3137 15.3555 46.1912 15.4771Q46.0581 15.6089 45.908 15.7178Q45.2041 16.229 44.1294 16.229Q42.9854 16.229 42.3132 15.666Q42.2 15.5713 42.1003 15.4604C41.6384 14.9478 41.4075 14.2456 41.4075 13.353L41.4075 12.2949Q41.4075 11.4854 41.1143 11.0718C40.9187 10.7964 40.6416 10.6587 40.283 10.6587Q40.1321 10.6587 39.9895 10.6934Q39.624 10.7817 39.3132 11.0967C39.0251 11.3887 38.8025 11.8267 38.645 12.4106Q38.4087 13.2866 38.4087 14.5762C38.4087 15.8101 38.5906 16.8462 38.9546 17.6836C39.3186 18.521 39.8157 19.1489 40.446 19.5679Q40.7485 19.7686 41.0776 19.9053Q41.7771 20.1958 42.5974 20.1958C43.4014 20.1958 44.0752 20.0776 44.6184 19.8403C45.1616 19.6035 45.5801 19.2041 45.8733 18.6421C46.0364 18.4878 46.1641 18.3887 46.2563 18.3447C46.3489 18.3008 46.4385 18.2783 46.5254 18.2783C46.634 18.2896 46.7236 18.3418 46.7942 18.4355C46.8555 18.5166 46.886 18.6372 46.886 18.7969C46.886 18.8218 46.8853 18.8472 46.884 18.8735C46.7969 19.9536 46.4656 20.9067 45.8896 21.7329C45.3137 22.5596 44.5369 23.2095 43.5591 23.6836ZM60.1267 23.353C58.9043 24.0249 57.4834 24.3613 55.8645 24.3613Q53.5012 24.3613 51.7166 23.3779Q50.7102 22.8232 49.9553 22.0298Q49.3713 21.416 48.9375 20.6587Q48.9053 20.6021 48.874 20.5454Q47.9434 18.8491 47.9434 16.6421Q47.9434 15.0132 48.5249 13.6284Q48.7222 13.1582 48.9866 12.7168C49.6819 11.5542 50.6436 10.6313 51.8713 9.94775Q51.9114 9.92578 51.9519 9.90381Q53.7654 8.92334 56.1089 8.92334Q58.4885 8.92334 60.2651 9.91504C61.4495 10.5762 62.373 11.4907 63.0359 12.6587C63.6987 13.8267 64.03 15.1768 64.03 16.7085C64.03 18.1631 63.6851 19.4658 62.9951 20.6172C62.3052 21.769 61.3489 22.6807 60.1267 23.353ZM57.1033 22.6421C56.7664 22.7085 56.4377 22.5596 56.1172 22.1958C55.7966 21.8325 55.4924 21.2207 55.2043 20.3613Q54.7725 19.0718 54.3813 16.9727C54.1313 15.5732 53.9902 14.4219 53.9575 13.5181C53.9521 13.3677 53.9495 13.2231 53.9495 13.085Q53.9495 12.0474 54.1531 11.4688C54.3162 11.0059 54.5659 10.7358 54.9028 10.6587C55.2397 10.5928 55.5684 10.7412 55.8889 11.105C56.2095 11.4688 56.5164 12.0801 56.8098 12.9399C57.1033 13.7993 57.3804 14.9287 57.6411 16.3281C57.9019 17.7275 58.0459 18.8818 58.073 19.791C58.0767 19.917 58.0786 20.0391 58.0786 20.1567C58.0786 20.8862 58.0061 21.4502 57.8611 21.8486C57.6926 22.3115 57.4399 22.5762 57.1033 22.6421ZM75.6511 23.3032C75.6511 23.8101 75.3958 24.0635 74.885 24.0635L65.8882 24.0635C65.6709 24.0635 65.4944 24.0005 65.3584 23.8735C65.2227 23.7471 65.1548 23.5679 65.1548 23.3364C65.1548 23.1382 65.2009 22.9785 65.2932 22.8569C65.3857 22.7358 65.5295 22.6367 65.7251 22.5596L66.426 22.3447Q66.5557 22.3037 66.657 22.2261Q66.7598 22.147 66.8335 22.0308C66.9314 21.8765 66.9802 21.6558 66.9802 21.3696L66.9802 11.8159C66.9802 11.6616 66.9421 11.5322 66.8662 11.4272C66.79 11.3228 66.6487 11.2261 66.4424 11.1382L65.4971 10.8242C65.2471 10.7026 65.0679 10.5732 64.9592 10.4355Q64.9229 10.3896 64.8945 10.3389Q64.7961 10.1626 64.7961 9.93164C64.7961 9.73291 64.864 9.5708 65 9.44385L65.0532 9.39941C65.1833 9.30225 65.353 9.25391 65.5623 9.25391L66.9924 9.25391L66.9812 9.15723C66.9507 8.96387 66.8743 8.77832 66.752 8.60107C66.5891 8.36377 66.4043 8.09668 66.1978 7.79932Q65.8882 7.35303 65.6438 6.73291Q65.3992 6.11328 65.3992 5.2041Q65.3992 3.80371 66.0129 2.76611Q66.3481 2.19971 66.8662 1.74121C67.844 0.876465 69.2349 0.443848 71.0386 0.443848C72.2012 0.443848 73.1655 0.631348 73.9316 1.00586C74.6975 1.38037 75.2708 1.87891 75.6511 2.50146C76.0315 3.12451 76.2214 3.80469 76.2214 4.54297Q76.2214 5.80273 75.592 6.45459Q75.5691 6.47852 75.5452 6.50146C75.0942 6.93701 74.5156 7.15479 73.8093 7.15479C73.0271 7.15479 72.3967 6.90137 71.9187 6.39404C71.4407 5.88721 71.2017 5.21533 71.2017 4.37793L71.2017 2.90674Q71.2017 2.32812 70.9734 2.05518C70.8213 1.87354 70.5876 1.78271 70.2725 1.78271C69.8706 1.78271 69.5662 1.92041 69.3599 2.1958C69.1533 2.47119 69.05 2.86816 69.05 3.38623C69.05 3.91504 69.1724 4.41064 69.4167 4.87354Q69.4202 4.87988 69.4238 4.88672Q69.7886 5.57324 70.3215 6.1709C70.6799 6.57324 71.0386 6.95898 71.3972 7.32812Q71.9351 7.88184 72.3018 8.41895L72.3713 8.52637Q72.5693 8.84814 72.6355 9.16699L72.6504 9.25391L75.0642 9.25391Q75.4392 9.25391 75.6428 9.41064C75.7788 9.51562 75.8467 9.67822 75.8467 9.89844C75.8467 10.229 75.7053 10.499 75.4229 10.7085C75.1404 10.9175 74.6948 11.0225 74.0864 11.0225L72.9292 11.0225L72.9292 21.3198C72.9292 21.6284 72.9753 21.8652 73.0676 22.0308C73.1602 22.1958 73.3096 22.2949 73.5159 22.3281L74.9177 22.543C75.1675 22.5762 75.3523 22.6558 75.4717 22.7827C75.5913 22.9092 75.6511 23.083 75.6511 23.3032ZM87.0276 23.3032C87.0276 23.8101 86.7722 24.0635 86.2615 24.0635L77.2646 24.0635C77.0474 24.0635 76.8708 24.0005 76.7349 23.8735C76.5991 23.7471 76.5312 23.5679 76.5312 23.3364C76.5312 23.1382 76.5774 22.9785 76.6697 22.8569C76.7622 22.7358 76.906 22.6367 77.1016 22.5596L77.8025 22.3447Q77.9321 22.3037 78.0334 22.2261Q78.1362 22.147 78.21 22.0308C78.3079 21.8765 78.3567 21.6558 78.3567 21.3696L78.3567 11.8159C78.3567 11.6616 78.3186 11.5322 78.2427 11.4272C78.1665 11.3228 78.0251 11.2261 77.8188 11.1382L76.8735 10.8242C76.6235 10.7026 76.4443 10.5732 76.3357 10.4355Q76.2993 10.3896 76.271 10.3389Q76.1726 10.1626 76.1726 9.93164C76.1726 9.73291 76.2405 9.5708 76.3765 9.44385L76.4297 9.39941C76.5598 9.30225 76.7295 9.25391 76.9387 9.25391L78.3689 9.25391L78.3577 9.15723C78.3271 8.96387 78.2507 8.77832 78.1284 8.60107C77.9656 8.36377 77.7808 8.09668 77.5742 7.79932Q77.2646 7.35303 77.0203 6.73291Q76.7756 6.11328 76.7756 5.2041Q76.7756 3.80371 77.3894 2.76611Q77.7246 2.19971 78.2427 1.74121C79.2205 0.876465 80.6113 0.443848 82.415 0.443848C83.5776 0.443848 84.542 0.631348 85.3081 1.00586C86.074 1.38037 86.6472 1.87891 87.0276 2.50146C87.408 3.12451 87.5979 3.80469 87.5979 4.54297C87.5979 5.41357 87.3726 6.06641 86.9216 6.50146C86.4707 6.93701 85.8921 7.15479 85.1858 7.15479C84.4036 7.15479 83.7732 6.90137 83.2952 6.39404C82.8171 5.88721 82.5781 5.21533 82.5781 4.37793L82.5781 2.90674Q82.5781 2.32812 82.3499 2.05518C82.1978 1.87354 81.9641 1.78271 81.6489 1.78271C81.2471 1.78271 80.9426 1.92041 80.7363 2.1958C80.5298 2.47119 80.4265 2.86816 80.4265 3.38623C80.4265 3.91504 80.5488 4.41064 80.7932 4.87354Q80.7966 4.87988 80.8 4.88672Q81.165 5.57324 81.698 6.1709C82.0564 6.57324 82.415 6.95898 82.7737 7.32812Q83.3115 7.88184 83.6782 8.41895L83.7478 8.52637Q83.9458 8.84814 84.012 9.16699L84.0269 9.25391L86.4409 9.25391Q86.8157 9.25391 87.0193 9.41064C87.1553 9.51562 87.2231 9.67822 87.2231 9.89844C87.2231 10.229 87.0818 10.499 86.7993 10.7085C86.5168 10.9175 86.0713 11.0225 85.4629 11.0225L84.3057 11.0225L84.3057 21.3198C84.3057 21.6284 84.3518 21.8652 84.4443 22.0308C84.5366 22.1958 84.686 22.2949 84.8923 22.3281L86.2942 22.543C86.5439 22.5762 86.7288 22.6558 86.8484 22.7827C86.9678 22.9092 87.0276 23.083 87.0276 23.3032ZM99.0234 23.5845C97.9695 24.1245 96.7524 24.394 95.3726 24.394C93.8513 24.394 92.5149 24.0776 91.363 23.4438C90.2112 22.8101 89.312 21.9233 88.6655 20.7827C88.019 19.6421 87.6958 18.3228 87.6958 16.8242C87.6958 15.248 88.0083 13.8682 88.6331 12.6836C89.2578 11.499 90.1624 10.5762 91.3467 9.91504C92.531 9.25391 93.9546 8.92334 95.6169 8.92334C97.0295 8.92334 98.2466 9.20166 99.2678 9.75781C100.289 10.3145 101.074 11.0693 101.623 12.0225Q101.851 12.4189 102.016 12.8398Q102.446 13.938 102.446 15.2041C102.446 15.7109 102.31 16.1104 102.039 16.4023L101.974 16.4673C101.706 16.7163 101.336 16.8403 100.865 16.8403L93.4143 16.8403L93.4304 16.917C93.6279 17.8242 93.9658 18.5508 94.4434 19.0967C95.2583 20.0278 96.345 20.4937 97.7031 20.4937C98.5725 20.4937 99.3413 20.2949 100.01 19.8984C100.678 19.5015 101.126 18.9507 101.354 18.2456C101.484 18.1021 101.601 18.0059 101.705 17.9561C101.808 17.9067 101.897 17.8818 101.973 17.8818C102.082 17.8818 102.175 17.9258 102.25 18.0142C102.327 18.1021 102.365 18.251 102.365 18.4604C102.365 19.54 102.071 20.5293 101.484 21.4272C100.898 22.3252 100.077 23.0444 99.0234 23.5845ZM93.2444 15.5156Q93.2209 15.1353 93.2209 14.7246C93.2209 13.689 93.2971 12.8735 93.4492 12.2783C93.6013 11.6836 93.7969 11.2622 94.0359 11.0142C94.2751 10.7661 94.5413 10.6421 94.8347 10.6421C95.2148 10.6421 95.5708 10.9673 95.9021 11.6172Q96.3994 12.5928 96.3994 14.8569C96.3994 15.3198 96.1929 15.5513 95.78 15.5513L93.2463 15.5513L93.2444 15.5156ZM114.605 23.5845C113.551 24.1245 112.334 24.394 110.954 24.394C109.433 24.394 108.096 24.0776 106.945 23.4438C105.793 22.8101 104.894 21.9233 104.247 20.7827C103.601 19.6421 103.277 18.3228 103.277 16.8242C103.277 15.248 103.59 13.8682 104.215 12.6836C104.839 11.499 105.744 10.5762 106.928 9.91504C108.113 9.25391 109.536 8.92334 111.198 8.92334C112.611 8.92334 113.828 9.20166 114.849 9.75781C115.871 10.3145 116.656 11.0693 117.205 12.0225C117.753 12.9756 118.028 14.0361 118.028 15.2041C118.028 15.7109 117.892 16.1104 117.62 16.4023L117.555 16.4673C117.288 16.7163 116.918 16.8403 116.447 16.8403L108.996 16.8403L109.012 16.917C109.209 17.8242 109.547 18.5508 110.025 19.0967Q110.471 19.6064 111.026 19.9302Q111.991 20.4937 113.285 20.4937C114.154 20.4937 114.923 20.2949 115.591 19.8984C116.259 19.5015 116.708 18.9507 116.936 18.2456C117.066 18.1021 117.183 18.0059 117.286 17.9561C117.389 17.9067 117.479 17.8818 117.555 17.8818C117.664 17.8818 117.756 17.9258 117.832 18.0142C117.908 18.1021 117.946 18.251 117.946 18.4604C117.946 19.54 117.653 20.5293 117.066 21.4272C116.479 22.3252 115.659 23.0444 114.605 23.5845ZM108.826 15.5156Q108.802 15.1353 108.802 14.7246C108.802 13.689 108.879 12.8735 109.031 12.2783C109.183 11.6836 109.378 11.2622 109.617 11.0142Q109.887 10.7344 110.203 10.665Q110.307 10.6421 110.416 10.6421C110.796 10.6421 111.152 10.9673 111.484 11.6172C111.815 12.2676 111.981 13.3477 111.981 14.8569Q111.981 15.2437 111.789 15.415Q111.636 15.5513 111.362 15.5513L108.828 15.5513L108.826 15.5156ZM128.5 23.8569C128.364 23.9946 128.166 24.0635 127.905 24.0635L119.755 24.0635C119.516 24.0635 119.329 23.9976 119.193 23.8652C119.057 23.7329 118.989 23.5513 118.989 23.3198C118.989 23.1436 119.03 22.9976 119.112 22.8818Q119.234 22.7085 119.446 22.5596L119.821 22.4106Q119.933 22.3579 120.009 22.2725Q120.076 22.1973 120.114 22.0967C120.168 21.9536 120.195 21.7168 120.195 21.3862L120.195 12.9893C120.195 12.7246 120.166 12.5347 120.106 12.4189C120.046 12.3032 119.946 12.2124 119.804 12.1465L119.38 12.0967C119.228 12.0088 119.117 11.915 119.046 11.8159C118.976 11.7168 118.94 11.5898 118.94 11.4355C118.94 11.2593 118.995 11.1021 119.103 10.9644C119.212 10.8267 119.397 10.7085 119.657 10.6094L124.286 9.27051C124.558 9.16016 124.786 9.08301 124.971 9.03906Q125.248 8.97266 125.444 8.97266C125.628 8.97266 125.767 9.03906 125.859 9.1709L125.889 9.21924C125.965 9.35742 126.018 9.57812 126.047 9.88184L126.171 12.4502L126.199 12.3555C126.254 12.1768 126.315 12.0049 126.381 11.8403C126.777 10.8545 127.302 10.1216 127.954 9.64209Q128.562 9.19482 129.24 9.02588Q129.651 8.92334 130.089 8.92334C131.023 8.92334 131.74 9.2373 132.24 9.86523C132.74 10.4937 132.99 11.4468 132.99 12.7246Q132.99 14.6255 132.208 15.5181C131.686 16.1133 131.012 16.4106 130.187 16.4106Q128.998 16.4106 128.418 15.8164Q128.41 15.8081 128.402 15.7993C128.016 15.3916 127.812 14.813 127.791 14.0635L127.774 13.4023C127.763 13.1489 127.715 12.9507 127.627 12.8076C127.541 12.6641 127.399 12.5928 127.204 12.5928C127.008 12.5928 126.837 12.6943 126.69 12.8984C126.544 13.1021 126.432 13.4136 126.356 13.8325Q126.242 14.4604 126.242 15.4355L126.242 21.2539C126.242 21.5625 126.291 21.8076 126.389 21.9893C126.487 22.1709 126.639 22.2842 126.845 22.3281L128.068 22.5762Q128.389 22.6226 128.538 22.8081Q128.548 22.8198 128.557 22.8325Q128.59 22.8794 128.616 22.9302Q128.703 23.1025 128.703 23.3198C128.703 23.54 128.635 23.7192 128.5 23.8569ZM145.792 23.353C144.57 24.0249 143.149 24.3613 141.53 24.3613C139.955 24.3613 138.572 24.0332 137.382 23.3779Q136.376 22.8232 135.621 22.0298Q135.037 21.416 134.603 20.6587Q134.571 20.6025 134.54 20.5454Q133.609 18.8491 133.609 16.6421C133.609 15.1875 133.957 13.8789 134.652 12.7168C135.348 11.5542 136.309 10.6313 137.537 9.94775Q137.577 9.92578 137.618 9.90381Q139.431 8.92334 141.775 8.92334C143.361 8.92334 144.747 9.25391 145.931 9.91504C147.115 10.5762 148.039 11.4907 148.702 12.6587Q148.727 12.7036 148.752 12.7485Q149.696 14.4692 149.696 16.7085C149.696 18.1631 149.351 19.4658 148.661 20.6172C147.971 21.769 147.015 22.6807 145.792 23.353ZM142.769 22.6421C142.432 22.7085 142.104 22.5596 141.783 22.1958C141.462 21.8325 141.158 21.2207 140.87 20.3613Q140.438 19.0718 140.047 16.9727C139.797 15.5732 139.656 14.4219 139.623 13.5181Q139.615 13.2925 139.615 13.085C139.615 12.3931 139.683 11.8545 139.819 11.4688C139.982 11.0059 140.232 10.7358 140.569 10.6587C140.906 10.5928 141.234 10.7412 141.555 11.105C141.875 11.4688 142.182 12.0801 142.476 12.9399Q142.916 14.229 143.307 16.3281C143.568 17.7275 143.712 18.8818 143.739 19.791C143.743 19.917 143.744 20.0391 143.744 20.1567C143.744 20.8862 143.672 21.4502 143.527 21.8486C143.358 22.3115 143.106 22.5762 142.769 22.6421ZM164.87 23.8901C164.283 24.2261 163.533 24.394 162.621 24.394C161.523 24.394 160.673 24.1602 160.07 23.6919L159.967 23.6079C159.633 23.3252 159.403 23.0049 159.278 22.6479L159.254 22.5737L159.232 22.6025C158.834 23.0933 158.318 23.4893 157.682 23.791C156.835 24.1934 155.922 24.394 154.944 24.394Q153.185 24.394 152.052 23.5522Q151.926 23.458 151.807 23.353C151.019 22.6587 150.625 21.7715 150.625 20.6919C150.625 19.2705 151.198 18.1631 152.344 17.3696C153.491 16.5762 155.232 16.1792 157.568 16.1792L157.744 16.1812C158.089 16.1885 158.392 16.2173 158.655 16.2681L158.741 16.2866L158.742 11.4688C158.742 11.083 158.652 10.7773 158.473 10.5513C158.293 10.3252 158.052 10.2124 157.748 10.2124C157.465 10.2124 157.229 10.2979 157.039 10.4688C156.848 10.6396 156.753 10.8789 156.753 11.1875L156.753 12.4438Q156.753 13.2246 156.421 13.8203Q156.233 14.1577 155.938 14.4355C155.395 14.9478 154.651 15.2041 153.705 15.2041Q152.548 15.2041 151.937 14.6504C151.53 14.2812 151.326 13.7441 151.326 13.0391Q151.326 12.979 151.329 12.9194Q151.375 11.9897 152.149 11.0967C152.698 10.4629 153.518 9.94238 154.61 9.53467C155.702 9.12695 157.063 8.92334 158.693 8.92334Q161.838 8.92334 163.313 10.1216C164.297 10.9204 164.789 12.0474 164.789 13.5015L164.789 20.8076C164.789 21.0171 164.835 21.1851 164.927 21.3115C165.02 21.4385 165.158 21.5015 165.343 21.5015Q165.409 21.5015 165.473 21.4883Q165.597 21.4624 165.709 21.3862C165.823 21.3091 165.908 21.1709 165.962 20.9727C165.995 20.9287 166.033 20.8955 166.076 20.8735C166.12 20.8516 166.168 20.8403 166.223 20.8403Q166.295 20.8403 166.355 20.8672Q166.445 20.9072 166.508 21.0059C166.579 21.1162 166.614 21.2539 166.614 21.4189C166.614 21.8047 166.47 22.229 166.182 22.6919C165.894 23.1548 165.457 23.5542 164.87 23.8901ZM158.057 21.8159C157.623 21.8159 157.272 21.6367 157.006 21.2783C156.74 20.9204 156.607 20.3721 156.607 19.6338C156.607 18.8628 156.734 18.2783 156.99 17.8818C157.245 17.4854 157.584 17.2866 158.008 17.2866C158.258 17.2866 158.476 17.3115 158.66 17.3613L158.741 17.3862L158.741 21.6274L158.688 21.6577C158.515 21.748 158.336 21.7998 158.15 21.8125L158.057 21.8159ZM178.561 23.105C177.529 23.9976 176.045 24.4438 174.111 24.4438Q173.134 24.4438 172.49 24.2622C172.061 24.1406 171.713 24.0195 171.447 23.8984C171.18 23.7773 170.966 23.7168 170.803 23.7168C170.64 23.7168 170.425 23.7773 170.159 23.8984L169.36 24.2622Q168.961 24.4438 168.684 24.4438C168.521 24.4438 168.369 24.3887 168.228 24.2783C168.086 24.1685 167.978 23.9478 167.902 23.6172L167.396 20.3281C167.338 20.0771 167.308 19.8496 167.308 19.646C167.308 19.5103 167.321 19.3848 167.347 19.2705C167.413 18.9839 167.559 18.7964 167.788 18.7085C168.027 18.5981 168.263 18.5928 168.497 18.6919C168.73 18.791 168.939 18.9673 169.124 19.2207C169.743 20.1792 170.303 20.9341 170.803 21.4854C171.302 22.0361 171.789 22.4248 172.261 22.6504C172.734 22.8765 173.231 22.9893 173.753 22.9893C174.307 22.9893 174.72 22.8569 174.991 22.5928C175.263 22.3281 175.399 21.9922 175.399 21.5845C175.399 21.2759 175.32 20.9946 175.163 20.7412C175.005 20.4878 174.717 20.2539 174.299 20.0391C173.88 19.8242 173.28 19.6118 172.498 19.4023C171.292 19.0938 170.292 18.6919 169.499 18.1958C168.706 17.7002 168.116 17.105 167.73 16.4106C167.345 15.7168 167.152 14.9067 167.152 13.981C167.152 12.9341 167.41 12.0332 167.926 11.2783C168.442 10.5239 169.148 9.94238 170.045 9.53467Q171.389 8.92334 173.068 8.92334C173.742 8.92334 174.291 8.98926 174.714 9.12158C175.138 9.25391 175.467 9.38623 175.7 9.51807C175.934 9.65039 176.111 9.7168 176.23 9.7168C176.361 9.7168 176.553 9.65332 176.809 9.52637C177.064 9.3999 177.322 9.27588 177.583 9.15479Q177.974 8.97266 178.235 8.97266C178.43 8.97266 178.588 9.03906 178.708 9.1709C178.827 9.30322 178.909 9.5293 178.952 9.84863L179.376 12.8901C179.42 13.1475 179.442 13.3696 179.442 13.5576C179.442 13.6914 179.431 13.8081 179.408 13.9067C179.354 14.1436 179.213 14.2949 178.985 14.3613Q178.952 14.3691 178.92 14.3735Q178.672 14.4072 178.398 14.2539C178.191 14.1382 177.985 13.9536 177.779 13.7002C176.985 12.499 176.26 11.6504 175.603 11.1548C174.945 10.6587 174.247 10.4106 173.508 10.4106Q172.71 10.4106 172.302 10.7578C172.031 10.9893 171.895 11.2925 171.895 11.667C171.895 11.9204 171.955 12.1572 172.074 12.3779Q172.253 12.7085 172.734 12.9976C173.055 13.1904 173.508 13.3804 174.095 13.5679C175.671 14.0527 176.893 14.5679 177.762 15.1133C178.632 15.6587 179.24 16.2842 179.588 16.9893C179.936 17.6943 180.109 18.5156 180.109 19.4521C180.109 20.9946 179.593 22.2124 178.561 23.105ZM189.562 23.8242Q188.487 24.394 187.02 24.394C185.368 24.394 184.127 23.9922 183.296 23.1875C182.464 22.3833 182.049 21.1162 182.049 19.3862L182.049 11.915C182.049 11.6836 182.027 11.5073 181.984 11.3862C181.94 11.2646 181.832 11.1655 181.658 11.0884L180.892 10.8403C180.707 10.7524 180.587 10.645 180.533 10.5181C180.479 10.3916 180.452 10.2344 180.452 10.0474C180.452 9.81592 180.533 9.62549 180.696 9.47705C180.859 9.32812 181.06 9.25391 181.299 9.25391L182.098 9.25391Q182.244 9.25391 182.407 9.13818C182.516 9.06104 182.663 8.90674 182.847 8.67529L185.863 6.14648Q186.189 5.74951 186.515 5.54297Q186.841 5.33643 187.167 5.33643C187.417 5.33643 187.612 5.41357 187.753 5.56787L187.798 5.62256C187.909 5.77686 187.965 6.00146 187.965 6.29492L187.965 9.25391L191.372 9.25391C191.611 9.25391 191.795 9.30615 191.926 9.41064C192.056 9.51562 192.121 9.67822 192.121 9.89844C192.121 10.207 191.986 10.4712 191.714 10.6919L191.653 10.7373C191.379 10.9272 190.965 11.0225 190.41 11.0225L187.965 11.0225L187.965 18.5596C187.965 19.3862 188.104 19.9976 188.381 20.394C188.658 20.791 189.063 20.9893 189.595 20.9893C189.823 20.9893 190.035 20.9399 190.231 20.8403C190.426 20.7412 190.603 20.6118 190.76 20.4521C190.918 20.2925 191.067 20.1133 191.209 19.915C191.35 19.7168 191.486 19.5181 191.616 19.3198C191.725 19.2759 191.82 19.2949 191.901 19.3779C191.973 19.4507 192.009 19.5898 192.009 19.7959C192.009 19.8232 192.009 19.8521 192.007 19.8818C191.931 20.7744 191.684 21.5596 191.266 22.2373C190.847 22.915 190.28 23.4438 189.562 23.8242ZM203.889 23.5845C202.835 24.1245 201.618 24.394 200.238 24.394C198.717 24.394 197.38 24.0776 196.229 23.4438C195.077 22.8101 194.178 21.9233 193.531 20.7827C192.885 19.6421 192.562 18.3228 192.562 16.8242Q192.562 14.4604 193.499 12.6836C194.124 11.499 195.028 10.5762 196.212 9.91504Q197.989 8.92334 200.483 8.92334C201.895 8.92334 203.112 9.20166 204.134 9.75781Q205.188 10.3325 205.906 11.1885Q206.232 11.5767 206.489 12.0225C207.037 12.9756 207.312 14.0361 207.312 15.2041C207.312 15.7109 207.176 16.1104 206.904 16.4023L206.84 16.4673C206.572 16.7163 206.202 16.8403 205.731 16.8403L198.28 16.8403L198.296 16.917C198.494 17.8242 198.831 18.5508 199.309 19.0967Q199.755 19.6064 200.31 19.9302Q201.275 20.4937 202.569 20.4937C203.438 20.4937 204.207 20.2949 204.875 19.8984C205.543 19.5015 205.992 18.9507 206.22 18.2456C206.35 18.1021 206.467 18.0059 206.57 17.9561C206.673 17.9067 206.763 17.8818 206.839 17.8818C206.948 17.8818 207.04 17.9258 207.116 18.0142C207.192 18.1021 207.23 18.251 207.23 18.4604C207.23 19.54 206.937 20.5293 206.35 21.4272C205.763 22.3252 204.943 23.0444 203.889 23.5845ZM198.11 15.5156Q198.087 15.1353 198.087 14.7246C198.087 13.689 198.163 12.8735 198.315 12.2783C198.467 11.6836 198.663 11.2622 198.902 11.0142C199.141 10.7661 199.407 10.6421 199.7 10.6421C200.081 10.6421 200.437 10.9673 200.768 11.6172C201.099 12.2676 201.265 13.3477 201.265 14.8569C201.265 15.3198 201.059 15.5513 200.646 15.5513L198.112 15.5513L198.11 15.5156ZM217.784 23.8569C217.648 23.9946 217.449 24.0635 217.189 24.0635L209.039 24.0635C208.8 24.0635 208.613 23.9976 208.477 23.8652C208.341 23.7329 208.273 23.5513 208.273 23.3198C208.273 23.1436 208.314 22.9976 208.396 22.8818Q208.518 22.7085 208.73 22.5596L209.105 22.4106Q209.217 22.3579 209.293 22.2729Q209.36 22.1973 209.398 22.0967C209.452 21.9536 209.479 21.7168 209.479 21.3862L209.479 12.9893C209.479 12.7246 209.45 12.5347 209.39 12.4189Q209.381 12.4023 209.372 12.3867Q209.28 12.2358 209.088 12.1465L208.665 12.0967C208.512 12.0088 208.401 11.915 208.33 11.8159C208.26 11.7168 208.225 11.5898 208.225 11.4355C208.225 11.2593 208.279 11.1021 208.387 10.9644C208.496 10.8267 208.681 10.7085 208.942 10.6094L213.571 9.27051Q213.978 9.10498 214.255 9.03906C214.44 8.99463 214.597 8.97266 214.728 8.97266C214.912 8.97266 215.051 9.03906 215.143 9.1709L215.173 9.21924C215.249 9.35742 215.302 9.57812 215.331 9.88184L215.455 12.4507L215.483 12.3555C215.538 12.1768 215.599 12.0049 215.665 11.8403Q216.26 10.3613 217.238 9.64209C217.89 9.16309 218.601 8.92334 219.373 8.92334C220.307 8.92334 221.024 9.2373 221.524 9.86523C222.024 10.4937 222.274 11.4468 222.274 12.7246C222.274 13.9922 222.013 14.9233 221.492 15.5181C220.97 16.1133 220.296 16.4106 219.47 16.4106C218.667 16.4106 218.072 16.207 217.686 15.7993C217.3 15.3916 217.096 14.813 217.075 14.0635L217.058 13.4023C217.048 13.1489 216.999 12.9507 216.912 12.8076C216.825 12.6641 216.684 12.5928 216.488 12.5928C216.292 12.5928 216.121 12.6943 215.975 12.8984C215.828 13.1021 215.717 13.4136 215.64 13.8325C215.564 14.251 215.526 14.7856 215.526 15.4355L215.526 21.2539C215.526 21.5625 215.575 21.8076 215.673 21.9893C215.771 22.1709 215.923 22.2842 216.129 22.3281L217.352 22.5762C217.58 22.6094 217.743 22.6943 217.841 22.8325C217.938 22.9702 217.987 23.1323 217.987 23.3198C217.987 23.54 217.919 23.7192 217.784 23.8569ZM234.351 23.105C233.319 23.9976 231.836 24.4438 229.902 24.4438Q228.924 24.4438 228.28 24.2622C227.851 24.1406 227.503 24.0195 227.237 23.8984C226.971 23.7773 226.756 23.7168 226.593 23.7168C226.43 23.7168 226.216 23.7773 225.949 23.8984L225.151 24.2622Q224.751 24.4438 224.474 24.4438C224.311 24.4438 224.159 24.3887 224.018 24.2783C223.877 24.1685 223.768 23.9478 223.692 23.6172L223.187 20.3281C223.128 20.0771 223.099 19.8496 223.099 19.646C223.099 19.5103 223.112 19.3848 223.138 19.2705C223.203 18.9839 223.35 18.7964 223.578 18.7085C223.817 18.5981 224.053 18.5928 224.287 18.6919C224.521 18.791 224.73 18.9673 224.914 19.2207C225.534 20.1792 226.093 20.9341 226.593 21.4854C227.093 22.0361 227.579 22.4248 228.052 22.6504C228.524 22.8765 229.022 22.9893 229.543 22.9893C230.097 22.9893 230.51 22.8569 230.782 22.5928C231.053 22.3281 231.189 21.9922 231.189 21.5845C231.189 21.2759 231.111 20.9946 230.953 20.7412C230.795 20.4878 230.508 20.2539 230.089 20.0391C229.671 19.8242 229.071 19.6118 228.288 19.4023C227.082 19.0938 226.083 18.6919 225.289 18.1958C224.496 17.7002 223.906 17.105 223.521 16.4106C223.135 15.7168 222.942 14.9067 222.942 13.981C222.942 12.9341 223.2 12.0332 223.716 11.2783C224.232 10.5239 224.939 9.94238 225.835 9.53467Q227.18 8.92334 228.859 8.92334C229.532 8.92334 230.081 8.98926 230.505 9.12158C230.928 9.25391 231.257 9.38623 231.491 9.51807C231.724 9.65039 231.901 9.7168 232.021 9.7168C232.151 9.7168 232.344 9.65332 232.599 9.52637C232.854 9.3999 233.113 9.27588 233.373 9.15479Q233.764 8.97266 234.025 8.97266C234.221 8.97266 234.378 9.03906 234.498 9.1709C234.617 9.30322 234.699 9.5293 234.742 9.84863L235.166 12.8901C235.211 13.1475 235.233 13.3696 235.233 13.5576C235.233 13.6914 235.221 13.8081 235.199 13.9067C235.145 14.1436 235.003 14.2949 234.775 14.3613Q234.743 14.3691 234.71 14.3735Q234.462 14.4072 234.188 14.2539C233.982 14.1382 233.775 13.9536 233.569 13.7002C232.776 12.499 232.051 11.6504 231.393 11.1548C230.736 10.6587 230.038 10.4106 229.299 10.4106Q228.5 10.4106 228.093 10.7578C227.821 10.9893 227.685 11.2925 227.685 11.667C227.685 11.9204 227.745 12.1572 227.865 12.3779Q228.044 12.7085 228.524 12.9976C228.845 13.1904 229.299 13.3804 229.885 13.5679C231.461 14.0527 232.683 14.5679 233.553 15.1133C234.422 15.6587 235.031 16.2842 235.378 16.9893C235.726 17.6943 235.9 18.5156 235.9 19.4521C235.9 20.9946 235.384 22.2124 234.351 23.105Z" clip-rule="evenodd" fill="#333D4B" fill-opacity="1.000000" fill-rule="evenodd"/>
	<path id="Combined Shape" d="M14.3889 4.4458C10.8745 0.93457 5.66528 0.429199 2.77637 3.3208C-0.114258 6.21143 0.391357 11.4214 3.89966 14.9341C4.83569 15.8701 5.91431 16.5859 7.05273 17.0986C7.42627 14.9282 8.49707 12.8418 10.123 11.1284C9.58472 10.9365 9.03271 10.7744 8.45654 10.6172C5.04565 9.68115 3.35083 6.83545 2.95483 3.49951C3.91772 4.65771 4.6272 5.98193 5.80615 6.95264C7.06323 7.98779 8.44775 8.36279 9.96704 8.80371C10.6555 9.00293 11.2542 9.29883 11.803 9.64355C13.2461 8.58887 14.8735 7.88721 16.5535 7.59766C16.042 6.45898 15.325 5.38184 14.3889 4.4458ZM8.44604 17.9331C8.66968 15.7593 9.72266 13.6338 11.4102 11.9463C14.9246 8.43506 20.1338 7.92773 23.0227 10.8213C25.9133 13.7119 25.4092 18.9214 21.8962 22.4346C20.209 24.1221 18.0835 25.1753 15.9099 25.3999C15.6204 25.4287 15.334 25.4438 15.0535 25.4438C13.1846 25.4438 11.5151 24.7881 10.2852 23.5581C8.86914 22.1436 8.21509 20.1455 8.44604 17.9331ZM17.3408 18.1191C15.9849 18.4897 14.7385 18.8374 13.5864 19.7163C12.2695 20.7231 11.5046 22.127 10.4622 23.3794C10.843 20.0962 12.4932 17.2744 15.8306 16.3057C17.3513 15.8643 18.7344 15.4878 19.9915 14.4546C21.1719 13.4839 21.8813 12.1611 22.8428 11.0015C22.4453 14.3374 20.752 17.1831 17.3408 18.1191Z" clip-rule="evenodd" fill="#0E8784" fill-opacity="1.000000" fill-rule="evenodd"/>
</svg>
